<?xml version="1.0" encoding="UTF-8" standalone="no"?>
<!-- Created with Inkscape (http://www.inkscape.org/) -->

<svg
   xmlns:dc="http://purl.org/dc/elements/1.1/"
   xmlns:cc="http://creativecommons.org/ns#"
   xmlns:rdf="http://www.w3.org/1999/02/22-rdf-syntax-ns#"
   xmlns:svg="http://www.w3.org/2000/svg"
   xmlns="http://www.w3.org/2000/svg"
   xmlns:sodipodi="http://sodipodi.sourceforge.net/DTD/sodipodi-0.dtd"
   xmlns:inkscape="http://www.inkscape.org/namespaces/inkscape"
   width="744.09448819"
   height="1052.3622047"
   id="svg2"
   version="1.1"
   inkscape:version="0.48.5 r10040"
   sodipodi:docname="New document 1">
  <defs
     id="defs4" />
  <sodipodi:namedview
     id="base"
     pagecolor="#ffffff"
     bordercolor="#666666"
     borderopacity="1.0"
     inkscape:pageopacity="0.0"
     inkscape:pageshadow="2"
     inkscape:zoom="0.35"
     inkscape:cx="375"
     inkscape:cy="520"
     inkscape:document-units="px"
     inkscape:current-layer="layer1"
     showgrid="false"
     inkscape:window-width="1276"
     inkscape:window-height="921"
     inkscape:window-x="1280"
     inkscape:window-y="18"
     inkscape:window-maximized="0" />
  <metadata
     id="metadata7">
    <rdf:RDF>
      <cc:Work
         rdf:about="">
        <dc:format>image/svg+xml</dc:format>
        <dc:type
           rdf:resource="http://purl.org/dc/dcmitype/StillImage" />
        <dc:title></dc:title>
      </cc:Work>
    </rdf:RDF>
  </metadata>
  <g
     inkscape:label="Layer 1"
     inkscape:groupmode="layer"
     id="layer1">
    <path
       style="fill:#000000"
       d="m 183.18751,711.27205 c -15.74958,-4.40838 -24.10926,-13.24774 -25.76712,-27.24566 l -0.92368,-7.79904 -11.02812,-4.58613 c -19.89816,-8.2748 -33.34589,-10.16964 -72.488771,-10.21394 -19.31125,-0.0218 -34.785966,-0.56781 -34.388263,-1.21323 2.064002,-3.34966 11.58936,-6.10488 25.025216,-7.23858 8.263863,-0.6973 15.897065,-0.93329 16.962661,-0.52443 1.065596,0.40886 1.937447,-0.0155 1.937447,-0.94287 0,-0.92743 -1.569332,-1.98864 -3.487405,-2.35823 -16.957128,-3.26744 -21.445991,-4.61705 -26.278465,-7.90079 -8.631018,-5.86493 -12.886504,-16.08175 -12.723278,-30.5468 0.16924,-14.99792 1.826392,-17.42165 11.04737,-16.15776 13.405725,1.83746 21.728285,8.1715 27.47153,20.90773 2.086987,4.62811 3.817128,6.41129 6.220601,6.41129 6.262248,0 7.051703,-2.58013 6.008117,-19.63612 -0.779614,-12.74173 -0.421759,-18.03369 1.765959,-26.11581 5.925412,-21.89022 22.402141,-39.58423 48.760051,-52.36238 16.28437,-7.89454 16.41717,-8.00387 20.90317,-17.20761 9.01884,-18.50363 30.73932,-35.0582 56.00783,-42.68719 l 10.92388,-3.29809 5.41021,-11.95638 c 4.34149,-9.59458 5.29135,-13.4071 4.80856,-19.30057 -0.58615,-7.15498 -0.76739,-7.38766 -7.03433,-9.031 -8.54107,-2.23966 -23.84345,-18.00448 -30.39596,-31.31451 -6.93662,-14.09026 -9.32152,-24.68587 -9.34243,-41.50632 l -0.0185,-14.79807 9.68724,0.54511 c 7.67006,0.43159 10.71862,-0.10245 14.64039,-2.56498 10.42109,-6.54338 13.90456,-19.41218 6.80982,-25.15716 -1.96991,-1.59513 -4.89933,-2.90022 -6.50983,-2.90022 -3.64041,0 -3.63398,-0.29001 0.17171,-7.74979 3.47987,-6.82113 4.10402,-17.42613 1.16247,-19.75155 -1.0656,-0.8424 -3.98947,-2.19303 -6.49747,-3.00143 l -4.56004,-1.46979 6.79582,-7.37259 c 3.73769,-4.05493 9.68595,-9.06633 13.21835,-11.13645 7.5517,-4.4256 25.14218,-9.13598 39.8447,-10.66965 6.20455,-0.64721 11.79266,-2.18441 13.77437,-3.7891 3.08375,-2.49708 3.18481,-3.15351 1.34411,-8.73088 -3.24034,-9.81832 -2.09496,-30.90421 2.50216,-46.06301 0.67524,-2.22661 -0.1581,-2.71243 -4.65281,-2.71243 -3.91417,0 -7.03752,-1.37159 -10.95414,-4.81043 -5.75493,-5.05294 -6.88688,-7.58923 -3.38704,-7.58923 3.82444,0 14.6849,-8.4259 20.51437,-15.91571 3.16388,-4.06503 5.40751,-7.73596 4.98584,-8.15763 -0.42166,-0.42167 -3.29254,0.28871 -6.37972,1.57862 -6.29375,2.62969 -17.67626,3.06862 -21.21219,0.81797 -1.81387,-1.15455 -1.15319,-1.71586 3.00558,-2.55359 6.80956,-1.37166 17.37794,-11.8391 19.72528,-19.53686 l 1.76659,-5.79324 -5.80276,-1.56252 c -3.19152,-0.85939 -6.93888,-2.81793 -8.32749,-4.35232 -2.39051,-2.6415 -2.2429,-2.75691 2.77652,-2.17094 7.91163,0.92365 13.64637,-4.07176 21.08212,-18.36419 3.52078,-6.767392 8.91006,-14.50696 11.97617,-17.199042 7.57813,-6.653693 22.98469,-13.633627 32.60916,-14.773492 6.82276,-0.808055 8.34032,-1.632892 10.85916,-5.90195 1.92055,-3.255058 7.09818,-7.251341 15.04761,-11.614257 14.86797,-8.159963 24.94269,-9.442795 43.93541,-5.594371 12.27551,2.487332 13.0725,2.47187 20.79083,-0.403302 32.37024,-12.058335 61.82657,-9.701004 78.07788,6.248404 6.2967,6.179773 12.87085,19.280148 12.87085,25.647995 0,1.419271 2.26681,4.919253 5.03736,7.777735 4.41475,4.554778 5.03736,6.227809 5.03736,13.534144 0,7.103987 -0.67051,9.03676 -4.53393,13.069256 -2.49357,2.60279 -6.73023,5.1444 -9.41476,5.64803 -4.2241,0.79241 -5.07425,1.78607 -6.31592,7.38159 -1.31204,5.91258 -1.00298,7.11042 3.61125,13.99682 2.7752,4.14198 5.49506,10.33941 6.0439,13.77204 0.54915,3.43356 2.89346,8.41278 5.21158,11.0686 6.3184,7.23899 11.93173,19.38911 14.24442,30.83212 l 2.06408,10.21278 12.36913,8.03302 c 16.01881,10.40313 35.09291,29.96641 47.00015,48.20559 16.93732,25.94405 17.46399,26.28127 29.92162,19.15957 8.31072,-4.75101 18.75527,-5.15215 25.10715,-0.96432 4.90592,3.23447 15.22725,16.72445 18.93893,24.7532 1.85949,4.02245 2.03944,6.26429 0.79017,9.84787 -1.2567,3.60499 -1.10434,5.37229 0.68291,7.92397 1.26523,1.80628 2.30029,4.90044 2.30029,6.87591 0,3.91808 -5.19018,15.06102 -7.75288,16.64486 -0.87852,0.54298 -1.16557,1.68604 -0.63766,2.54015 0.52792,0.85409 0.49211,4.67148 -0.079,8.48307 -1.19177,7.94665 -7.56674,16.21147 -14.82318,19.21717 -4.16799,1.72645 -4.45613,2.23719 -2.51264,4.45338 3.81398,4.34903 8.4637,14.81845 9.40422,21.17486 0.49877,3.37026 0.49397,5.24121 -0.0155,4.15768 -1.31871,-2.83265 -9.11453,-6.55471 -13.72844,-6.55471 l -3.94542,0 3.01064,7.92371 c 1.65597,4.35805 4.2024,9.24042 5.65889,10.84971 2.43375,2.6893 2.44041,2.92599 0.0822,2.92599 -3.37627,0 -3.23631,1.90803 0.70663,9.63679 1.7995,3.52735 3.63248,10.39098 4.07328,15.2525 0.66602,7.3444 0.11005,10.35004 -3.28885,17.77395 -3.87583,8.46589 -4.23836,8.801 -6.90785,6.38516 -3.51639,-3.18229 -4.89818,-3.22826 -4.89818,-0.16297 0,4.19985 -5.9089,14.14254 -10.90163,18.34364 -2.66081,2.2389 -7.51497,4.49883 -10.78724,5.02206 l -5.9492,0.95134 2.96352,4.86014 c 3.67169,6.02146 3.85288,16.49164 0.41089,23.74515 l -2.5644,5.40388 -2.33331,-5.16964 -2.33331,-5.16963 -1.36303,9.92865 c -1.70433,12.41644 -6.29422,23.26658 -12.25986,28.98206 -3.85645,3.69464 -5.02015,4.09651 -7.24992,2.50346 -6.60437,-4.71864 -10.0941,-5.25037 -14.19576,-2.16303 -3.46152,2.6055 -3.95859,4.1266 -3.95037,12.08887 0.0155,7.01503 1.03475,11.06752 4.471,17.63311 7.60875,14.53791 18.03996,28.07228 33.6561,43.66879 16.77287,16.75169 18.78115,17.71865 40.13631,19.32404 23.63391,1.77671 31.65479,8.80002 36.35612,31.83463 0.55783,2.73324 1.99883,4.32427 4.21139,4.64987 4.65607,0.68517 5.25715,3.77539 0.95725,4.92206 -20.49602,5.46582 -116.09602,4.44095 -121.84326,-1.3062 -1.92986,-1.92989 2.64872,-3.84078 11.3663,-4.74367 13.75913,-1.42506 13.73201,-1.40092 9.0034,-8.02184 -2.57061,-3.5992 -9.23915,-8.84077 -17.30854,-13.60477 -7.21986,-4.26238 -17.13866,-11.69311 -22.04195,-16.51272 -4.90329,-4.81961 -10.54792,-9.2513 -12.54381,-9.84819 -7.64082,-2.28512 -17.03388,-8.92799 -20.91311,-14.78988 -2.36849,-3.57895 -6.92366,-7.54538 -11.00811,-9.58527 -12.38912,-6.18738 -20.10187,-19.29282 -18.6539,-31.69623 0.50141,-4.29445 0.0945,-5.14033 -2.4742,-5.14033 -6.79904,0 -17.72159,7.2829 -30.40226,20.27144 -9.87013,10.1098 -14.72972,13.92287 -19.37448,15.20237 -8.49671,2.34062 -20.55135,2.15567 -29.20291,-0.44806 l -7.22109,-2.17324 0,5.70325 c 0,3.13681 -1.06808,7.22812 -2.37345,9.09182 -2.27085,3.24208 -2.10903,3.52344 3.74345,6.50911 l 6.11676,3.12055 7.18917,-4.01813 c 8.45409,-4.72504 19.42112,-5.34411 26.82713,-1.51435 2.7163,1.40468 8.54228,2.50377 13.27182,2.50377 9.63594,0 13.09157,2.12677 18.88795,11.62468 11.61445,19.03102 12.08161,24.68416 2.88152,34.86753 l -5.28039,5.8449 8.8284,1.10305 c 4.85571,0.60668 10.61768,1.78327 12.8042,2.61465 3.33706,1.26873 3.57994,1.73319 1.51152,2.89072 -13.1052,7.33424 -150.96852,7.30239 -164.08458,-0.038 -1.9438,-1.08785 -1.57227,-1.65456 1.96674,-3.00014 2.3998,-0.91243 6.02051,-1.65895 8.04584,-1.65895 5.34192,0 5.93556,-2.29879 1.24027,-4.80377 -2.25922,-1.20531 -5.59736,-5.46576 -7.50458,-9.57789 -3.09992,-6.68439 -3.54011,-7.06235 -4.51271,-3.87489 -0.59286,1.94258 -1.41061,5.95545 -1.81732,8.91749 -0.91603,6.67118 -4.56071,10.88902 -9.40928,10.88902 -2.02907,0 -5.40331,1.12311 -7.49831,2.49582 -2.72466,1.78525 -5.46711,2.19751 -9.63271,1.44798 -8.95387,-1.61106 -14.53027,-1.40248 -21.58984,0.80758 -5.20236,1.62861 -7.62639,1.64889 -12.39967,0.10369 -6.46698,-2.09348 -42.77073,-7.9768 -43.71366,-7.08413 -0.31983,0.30278 0.59751,3.49715 2.03852,7.0986 5.33877,13.34291 2.50286,23.96325 -7.79622,29.1965 -5.89959,2.99774 -28.7535,3.65715 -37.91121,1.09388 z m 19.38342,-9.34445 c 3.97155,-2.90408 2.47429,-7.61671 -6.84843,-21.55531 -7.91462,-11.83335 -17.09414,-19.75973 -22.88368,-19.75973 -8.08999,0 -8.52631,25.53678 -0.58809,34.42117 6.37124,7.13067 24.39268,11.22819 30.3202,6.89387 z m 20.64723,-0.32904 c 1.89464,-1.32706 3.4448,-3.80288 3.4448,-5.50182 0,-4.24838 -4.47642,-12.55096 -6.41802,-11.90376 -2.8456,0.94853 -9.64779,14.55724 -8.61786,17.24121 1.24433,3.24262 7.07815,3.32535 11.59108,0.16437 z m 244.25183,-26.47275 c 2.24743,-2.24744 4.0863,-4.59273 4.0863,-5.21174 0,-0.619 2.09245,-3.75846 4.64988,-6.97657 3.06271,-3.854 4.64987,-7.61157 4.64987,-11.0089 0,-3.5207 -1.47587,-6.83873 -4.64987,-10.45371 -2.55743,-2.91274 -4.64988,-6.66507 -4.64988,-8.33848 0,-4.79792 -5.49754,-8.56045 -13.65295,-9.34407 -5.54281,-0.5326 -8.13325,-0.0705 -9.98452,1.78071 -2.29983,2.29991 -2.57448,2.26485 -3.43238,-0.43808 -1.19053,-3.7509 -8.82577,-6.94984 -13.50231,-5.65707 -1.98084,0.5476 -6.78943,2.41523 -10.68572,4.15028 l -7.08423,3.15464 -13.06522,-3.92054 c -7.18591,-2.15628 -17.20391,-4.65807 -22.26235,-5.55951 -13.88995,-2.47534 -39.22308,-2.04681 -49.03261,0.82945 -7.93172,2.32568 -21.5844,9.65474 -21.59046,11.59024 -0.002,0.48621 8.54137,1.73659 18.98421,2.77861 10.44284,1.04202 21.19102,2.2794 23.885,2.74973 l 4.89803,0.85514 -4.89694,4.37543 c -5.74895,5.13668 -4.77015,7.25033 2.22791,4.81082 6.87019,-2.39498 17.51266,-2.16128 23.94375,0.52579 6.34413,2.65075 7.58906,5.03915 5.49599,10.54436 -1.22136,3.21224 -0.92656,4.80607 1.44642,7.82295 3.86281,4.91062 13.67389,7.36732 33.65873,8.42814 l 15.87343,0.84259 2.71522,-6.03425 2.71537,-6.03423 0.47738,6.38426 c 0.46747,6.24879 0.64851,6.43409 8.53562,8.73184 11.99342,3.49409 15.62141,3.24721 20.24633,-1.37783 z m -15.46595,-5.81394 c -5.43059,-6.03383 -6.93404,-18.83682 -3.61559,-30.78621 1.87995,-6.76932 5.10464,-7.50009 11.36507,-2.57556 8.67341,6.82241 11.23177,17.37684 4.91042,20.25705 -2.57804,1.17465 -3.94294,3.21698 -4.26238,6.37818 -0.56372,5.5781 -5.7164,9.70551 -8.39752,6.72654 z m -42.41413,-7.32921 c -10.71548,-4.27531 -12.15151,-11.21969 -3.75198,-18.14331 5.70136,-4.69961 21.67104,-10.74125 23.5158,-8.89654 0.56233,0.56245 1.04638,5.22903 1.07567,10.37016 0.0496,8.62825 -0.33649,9.69578 -5.00884,13.8735 -5.25451,4.6983 -9.28084,5.4095 -15.83065,2.79619 z m -200.79649,2.07591 c 0.84967,-6.19199 0.54901,-9.05359 -1.23772,-11.78049 -2.79324,-4.26302 -11.52384,-8.71506 -17.09058,-8.71506 -4.95715,0 -11.85085,3.05714 -11.85085,5.25549 0,0.9119 6.0878,7.77413 13.52843,15.2494 14.91486,14.9843 14.59328,14.98447 16.65072,-0.009 z m 457.35698,9.83257 c 1.98084,-3.02302 2.11166,-4.44199 0.66028,-7.15414 -1.4582,-2.72473 -1.40426,-3.24997 0.27729,-2.69865 1.14836,0.37649 2.73412,3.24712 3.52382,6.37917 0.78971,3.13204 1.9249,5.69462 2.52256,5.69462 2.58704,0 4.8447,-4.87963 3.93488,-8.50464 -1.38272,-5.5094 0.37292,-4.83425 2.97049,1.14234 l 2.18947,5.03736 0.0604,-5.96069 c 0.076,-7.47997 -3.81599,-14.21933 -10.65921,-18.45641 -4.26316,-2.6396 -8.79431,-3.46591 -23.24937,-4.23987 -21.0289,-1.12592 -23.59656,-2.19266 -38.33666,-15.92775 -12.03185,-11.2114 -24.95742,-28.0886 -37.11622,-48.46363 -9.34671,-15.66268 -13.70348,-18.9553 -22.70021,-17.15594 -4.79356,0.95871 -4.88996,0.88417 -2.25829,-1.74556 1.91172,-1.91019 5.02651,-2.71393 10.22476,-2.6384 l 7.47545,0.10865 -2.71289,-4.7585 c -1.49215,-2.61718 -3.54321,-7.38046 -4.55797,-10.58511 -2.1749,-6.86797 -4.16365,-6.33251 -5.63642,1.51749 l -1.0611,5.65686 -3.63527,-10.74858 c -1.99913,-5.91177 -3.73648,-11.09737 -3.86063,-11.52361 -0.124,-0.42624 -0.71934,3.56068 -1.32289,8.85985 -0.7725,6.7833 -2.42321,11.59992 -5.57737,16.27456 -4.23402,6.27472 -4.50681,6.42671 -4.96266,2.76483 -0.74599,-5.99259 -3.64627,-12.45399 -5.16802,-11.51351 -0.75343,0.46572 -1.37001,5.79605 -1.37001,11.8452 0,10.86657 -0.0372,10.96513 -3.0717,8.21863 -1.6893,-1.52889 -4.36934,-6.25845 -5.95525,-10.5101 l -2.8837,-7.73028 -3.16858,4.45754 c -4.99567,7.02819 -6.83795,15.71367 -4.88004,23.00816 1.82508,6.79982 8.5708,16.89355 13.68349,20.47454 1.76959,1.23947 4.5761,4.91681 6.23672,8.17187 4.3636,8.55357 11.6484,15.21503 19.07022,17.43867 4.30315,1.28924 9.4969,4.96621 15.51384,10.98311 9.15405,9.1541 25.43682,20.68836 31.27318,22.15324 1.75099,0.43946 4.36531,2.858 5.80971,5.37452 1.46301,2.54931 3.93457,4.5755 5.58109,4.5755 1.62544,0 5.51413,2.41336 8.64163,5.36302 7.14547,6.73898 15.94613,8.83304 19.09393,4.54325 1.18309,-1.61231 1.80354,-4.32643 1.37885,-6.03138 -0.76026,-3.05267 -0.73778,-3.05405 1.47571,-0.0913 1.2364,1.65476 2.24791,4.61906 2.24791,6.58732 0,3.47246 0.4129,3.57865 13.91397,3.57865 13.02879,0 14.07098,-0.23986 16.3846,-3.77096 z m -117.87119,-60.7985 c -7.59015,-3.99438 -13.33522,-10.11382 -17.23042,-18.35329 -5.09967,-10.78724 -4.7979,-13.62406 1.78338,-16.76246 7.37764,-3.5181 7.6647,-3.35822 3.77616,2.10275 -2.42305,3.40282 -3.06876,5.88275 -2.32075,8.91225 1.67334,6.77684 9.67112,18.10996 15.91574,22.55302 6.37885,4.53868 5.34286,5.37205 -1.92411,1.54773 z m -257.09484,60.40405 c 1.16972,-0.44887 2.16336,-1.96209 2.20807,-3.36272 0.0635,-1.99223 0.61087,-1.78743 2.51399,0.94081 4.42297,6.34059 20.56791,3.25033 20.70337,-3.96278 0.0454,-2.41591 0.21399,-2.40755 2.12089,0.10509 1.62902,2.14645 2.40925,2.31202 3.65205,0.77497 2.57958,-3.19031 3.93874,-17.57119 2.0026,-21.1889 -1.82705,-3.41389 -12.23954,-9.43997 -16.31133,-9.43997 -1.32558,0 -6.19507,-2.13607 -10.82107,-4.74682 -4.62601,-2.61076 -14.55456,-6.84131 -22.06342,-9.40122 -16.28351,-5.55136 -46.02615,-10.45999 -49.62492,-8.18993 -6.54102,4.12597 -11.12174,32.01476 -6.26394,38.13675 1.0656,1.34292 7.13381,3.58087 13.48491,4.97326 6.82799,1.49692 16.66241,5.29718 24.06249,9.29834 6.88326,3.72171 13.89282,7.1418 15.5768,7.60018 3.1738,0.86394 15.03529,-0.10803 18.75951,-1.53706 z M 174.16885,635.18267 c 4.16671,-10.15031 7.20171,-18.82922 6.74444,-19.28647 -0.45725,-0.45727 -5.8696,0.64613 -12.02741,2.452 l -11.19604,3.28337 3.87489,-3.20971 c 3.45511,-2.86199 15.06474,-8.6774 21.90023,-10.97009 3.89602,-1.30677 7.4568,-13.9099 9.94136,-35.1868 2.80767,-24.04374 7.4257,-47.78195 12.25234,-62.98111 l 3.68492,-11.6039 -4.90244,1.00967 c -7.77726,1.60176 -20.76634,7.92556 -25.02368,12.18289 -5.06855,5.06854 -4.90934,3.52409 0.63277,-6.13824 5.97154,-10.41102 17.38915,-21.46854 27.1116,-26.25653 5.84379,-2.87789 6.67647,-3.64222 3.22657,-2.96172 -2.55743,0.50445 -8.97492,2.97672 -14.26108,5.49393 -11.55799,5.50379 -24.77085,19.298 -30.14178,31.46794 -3.38702,7.67457 -4.44097,8.62573 -16.26966,14.68266 -39.70114,20.32914 -57.471015,47.45329 -49.43802,75.46275 1.44577,5.04106 3.96958,11.47226 5.60848,14.29154 1.63891,2.81928 2.97982,5.37714 2.97982,5.68414 0,1.39185 -15.035766,6.08552 -24.446288,7.63134 -11.661666,1.91561 -14.20059,5.09713 -7.546791,9.45687 3.447075,2.25861 4.621276,2.28789 11.331989,0.28262 4.117556,-1.23039 11.80764,-3.99959 17.08911,-6.15378 l 9.60264,-3.91673 2.41512,3.68597 c 3.36289,5.13239 17.72503,15.71023 25.00877,18.41916 3.33816,1.2415 10.16505,2.11688 15.17086,1.9453 l 9.10147,-0.31199 7.57581,-18.45508 z m 30.09888,2.71565 -4.57072,-4.0168 5.0217,1.10295 c 6.68806,1.46896 9.54459,-1.12344 9.54459,-8.66204 0,-4.72186 2.67969,-10.58264 12.49229,-27.32198 15.34518,-26.17741 34.52983,-64.88602 37.8001,-76.26874 3.30224,-11.49395 1.27553,-8.84815 -10.6354,13.88423 -5.58334,10.65596 -10.16418,18.27484 -10.17966,16.93085 -0.0463,-4.02079 8.99538,-34.91405 14.06893,-48.07023 2.60026,-6.74269 5.60369,-12.25944 6.67429,-12.25944 4.05068,0 16.4327,-9.74843 20.84722,-16.41313 2.52742,-3.8157 5.45323,-10.5139 6.50182,-14.88489 1.54382,-6.4354 3.6059,-9.6101 10.83948,-16.68816 6.90951,-6.76097 9.28103,-10.30341 10.46959,-15.63891 l 1.53663,-6.89799 0.1319,7.74979 c 0.0789,4.63375 -1.08395,10.42886 -2.89205,14.41284 l -3.024,6.66303 4.41493,-3.1437 4.41491,-3.1437 -3.65827,9.05696 c -13.19167,32.65932 -3.84476,61.82732 25.824,80.58649 l 9.1911,5.81134 -7.70469,1.97461 c -9.71203,2.48914 -24.64766,12.05777 -30.21594,19.35817 -5.29029,6.93592 -8.39262,15.39844 -8.48161,23.13602 l -0.068,5.91611 6.58732,-5.33561 c 12.39939,-10.04327 24.90851,-14.09809 36.78986,-11.92543 3.42184,0.62573 6.22153,0.62791 6.22153,0.005 0,-2.29008 -6.37358,-9.14688 -9.39305,-10.10522 -2.63276,-0.83561 -1.69891,-1.90124 6.06126,-6.91693 5.04543,-3.26102 9.48327,-6.8584 9.86192,-7.99414 0.4639,-1.39185 3.17493,0.14352 8.3163,4.70984 13.38714,11.88993 28.2221,16.8539 36.7915,12.31096 1.86197,-0.98712 7.57046,-5.57774 12.68532,-10.20139 12.14811,-10.98147 26.6041,-20.52002 42.75388,-28.2106 17.01017,-8.10022 28.52667,-10.92963 44.75689,-10.99594 24.24584,-0.099 44.31841,-5.41574 51.83819,-13.73061 3.5911,-3.97081 2.94926,-4.06224 -3.87707,-0.55242 -4.28439,2.20289 -9.35182,2.71242 -26.97484,2.71242 -26.45267,0 -30.22805,-0.82679 -30.21395,-6.61684 0.0202,-8.35181 9.52992,-17.97514 22.754,-23.02543 7.68795,-2.93606 9.6953,-7.26369 6.71116,-14.46805 -3.53127,-8.52545 2.76776,-10.7628 9.75854,-3.46606 5.38595,5.62174 5.25466,8.89066 -0.57597,14.33729 -3.99548,3.73228 -4.47581,4.92389 -3.05527,7.57836 2.68344,5.01392 9.30594,5.89902 12.70748,1.69834 1.56112,-1.9277 2.83844,-5.17151 2.83844,-7.20825 0,-2.83501 0.83899,-3.70319 3.57854,-3.70319 1.96829,0 4.93259,1.02404 6.58732,2.27565 4.20783,3.18254 5.33372,2.92278 5.33372,-1.2305 0,-1.98258 -1.71612,-5.2168 -3.81336,-7.18714 -3.14735,-2.95673 -4.93972,-3.43135 -10.26259,-2.71741 l -6.44921,0.86501 0.79884,-7.08693 c 0.67501,-5.98795 0.23436,-7.65146 -2.84169,-10.7274 -4.55269,-4.55275 -9.80767,-4.61243 -18.18023,-0.20645 -3.58908,1.88871 -9.63562,3.60507 -13.43689,3.81413 -8.44696,0.46459 -13.80346,4.14831 -17.88791,12.30155 -7.95702,15.88344 -10.56513,17.60985 -32.54912,21.546 -30.25843,5.41763 -55.17276,12.96789 -64.97159,19.68967 l -4.77651,3.27655 5.34503,-5.68545 c 5.71687,-6.0809 18.71016,-11.87774 26.62347,-11.87774 4.69157,0 4.71993,-0.0507 3.69123,-6.58732 -1.53198,-9.73402 -8.90141,-24.67436 -15.35295,-31.12598 -6.56175,-6.56178 -14.64494,-11.00047 -24.5952,-13.50597 -5.91526,-1.48947 -7.90215,-1.35625 -12.53079,0.84018 -5.26149,2.4968 -10.85838,8.50617 -14.72258,15.80791 -1.78726,3.37708 -1.75099,3.37429 4.79572,-0.36881 9.4394,-5.39705 11.20899,-4.86897 6.71287,2.00338 -2.09136,3.19679 -4.28827,7.90479 -4.8819,10.46222 l -1.07955,4.64987 4.47256,-4.08544 c 6.51649,-5.95258 12.96726,-8.79244 22.44215,-9.87983 l 8.37969,-0.96172 -4.64987,3.58229 c -17.00908,13.10387 -25.27206,31.46063 -26.7157,59.35023 l -0.88022,17.00637 -7.36927,-8.22768 c -18.38483,-20.52654 -27.70441,-50.27058 -22.64845,-72.2838 1.17471,-5.11486 2.66143,-10.52033 3.30374,-12.01217 0.99817,-2.31827 0.29278,-2.71243 -4.85463,-2.71243 l -6.02264,0 -1.65284,-10.49684 c -0.90907,-5.77326 -2.96701,-13.27118 -4.5732,-16.66204 -4.48465,-9.46766 -14.44725,-18.46736 -24.82862,-22.42893 -28.07249,-10.71258 -47.91595,2.53967 -49.89128,33.31938 -0.40207,6.26525 -0.28545,13.16675 0.25917,15.33669 l 0.99022,3.94533 5.01866,-5.32724 c 2.76027,-2.92998 7.11111,-5.76101 9.66854,-6.29115 l 4.64987,-0.96392 -4.37381,2.42531 c -6.27254,3.47818 -10.10516,8.50767 -12.23493,16.05567 -2.16307,7.666 -3.5071,8.23807 -5.47617,2.33087 l -1.41882,-4.25644 -4.40702,6.96887 c -2.42387,3.83288 -5.80368,11.15376 -7.51068,16.26862 -1.70702,5.11486 -4.28628,11.04345 -5.7317,13.17464 -12.86925,18.97504 -22.4058,51.2765 -26.31217,89.12258 -1.44441,13.99377 -3.26511,21.24305 -10.15858,40.44728 -4.61933,12.86875 -8.39972,24.02845 -8.40088,24.79932 -0.001,0.77087 3.70075,1.17044 8.22648,0.88794 4.99367,-0.31171 10.32623,0.40026 13.56425,1.811 7.33797,3.19704 7.54532,3.05934 2.31488,-1.53721 z M 382.59678,556.3524 c -3.32017,-1.90404 -7.03511,-4.98314 -8.25523,-6.84243 l -2.21877,-3.38053 5.87078,2.99304 c 3.22887,1.64617 8.94294,2.99303 12.69803,2.99303 6.11969,0 7.77427,-0.87671 15.96301,-8.45796 10.99587,-10.18025 24.34147,-17.85313 40.37563,-23.21349 17.27629,-5.77559 17.83474,-4.84096 2.05168,3.43366 -18.10553,9.4922 -27.27895,15.82748 -39.00221,26.93575 -8.26004,7.82651 -10.35806,9.04838 -15.49958,9.02634 -3.2763,-0.014 -8.65729,-1.58006 -11.98334,-3.48741 z m 117.87398,-86.1192 c -3.33241,-3.68221 -3.23446,-5.37915 0.50559,-8.7639 2.65028,-2.39842 3.42851,-2.48441 5.68199,-0.62772 2.36493,1.94855 2.51109,1.74953 1.5495,-2.11102 -1.27407,-5.1157 0.81527,-5.54459 5.27667,-1.08319 3.68394,3.68403 2.95345,8.48042 -1.93574,12.70787 -4.03191,3.48627 -7.85054,3.44421 -11.07801,-0.12198 z m -221.98811,-2.59039 c 3.80521,-9.42541 5.54233,-17.95279 5.65464,-27.75808 0.1212,-10.58451 0.20461,-10.81894 2.25502,-6.34099 4.60013,10.04632 1.21871,28.76333 -6.30037,34.87405 -2.63151,2.13862 -2.76049,2.07653 -1.60929,-0.77498 z M 64.00671,634.05059 c -1.747701,-2.86669 -3.18025,-7.26073 -3.183442,-9.76453 l -0.0062,-4.55237 4.649873,4.45486 4.649873,4.45486 0,-7.46932 c 0,-10.242 -4.378987,-16.9582 -13.270955,-20.35407 -3.821189,-1.45933 -7.297775,-2.30316 -7.725749,-1.87517 -0.427975,0.42798 -1.200443,5.30058 -1.71661,10.82801 -1.079421,11.55926 0.91928,19.30514 6.281158,24.34237 3.164983,2.97334 11.691921,6.58808 13.028279,5.52294 0.25906,-0.20648 -0.958928,-2.72088 -2.70663,-5.58758 z m 169.32054,-24.03977 c 20.18025,-10.38648 40.97881,-29.4969 48.22782,-44.31335 7.94906,-16.24728 8.56763,-37.46436 1.49122,-51.14864 -1.21793,-2.35519 -1.55253,-4.28218 -0.74358,-4.28218 2.92572,0 11.21987,8.28124 14.55472,14.53208 l 3.41038,6.39235 0.50984,-5.23947 c 0.58023,-5.96274 -6.2231,-20.89219 -13.44801,-29.51083 l -4.44387,-5.3011 -2.71394,8.40102 c -6.24377,19.32754 -23.66674,56.54736 -43.62595,93.19595 -5.43561,9.98071 -9.88292,18.52485 -9.88292,18.98699 0,1.35622 1.40093,0.99615 6.66429,-1.71282 z m 205.59654,-15.49283 c 8.41441,-3.4649 14.7167,-9.00226 20.97295,-18.42776 3.18361,-4.79628 7.98119,-10.11068 10.66138,-11.80978 l 4.87307,-3.08924 -5.42485,1.00955 c -2.98367,0.55526 -8.78625,3.04814 -12.89472,5.53974 l -7.46987,4.53017 3.44835,-5.04022 c 6.88491,-10.06333 16.33733,-18.67251 25.441,-23.17142 l 9.29975,-4.59576 -7.70174,1.04714 c -11.68374,1.58855 -21.21954,7.25698 -31.18484,18.53745 -16.4435,18.61367 -33.08385,26.57658 -52.9013,25.31471 -8.8825,-0.56559 -9.69359,-0.38911 -7.16313,1.55864 4.82362,3.71285 18.54323,9.64385 25.60127,11.06755 7.78048,1.56941 16.85998,0.65162 24.44268,-2.47077 z M 573.85351,480.17734 c 0,-1.10393 1.82461,-3.97594 4.05469,-6.38226 l 4.05469,-4.37512 2.26945,5.31126 2.26944,5.31126 3.59901,-6.97481 c 1.9796,-3.83615 5.32193,-8.58198 7.42755,-10.5463 3.568,-3.32868 3.90651,-3.38138 4.97862,-0.77498 0.63269,1.53808 1.60436,6.63265 2.15909,11.32128 l 1.00871,8.52476 5.78165,-7.74979 c 6.4734,-8.67703 11.99575,-24.21764 11.99575,-33.75753 l 0,-6.30675 3.84823,3.61524 c 2.11663,1.9884 4.26766,4.93662 4.78023,6.55163 1.53663,4.84162 4.94498,0.48808 8.41611,-10.75046 3.40712,-11.03088 3.96185,-22.85256 1.48998,-31.75295 -1.38318,-4.98003 -1.06978,-6.79455 2.33346,-13.51059 4.79061,-9.45372 4.98947,-11.1743 0.6547,-5.6635 -3.70564,4.71103 -5.61534,4.38269 -2.99421,-0.51482 2.25597,-4.21544 0.46081,-4.11005 -4.33972,0.25474 -3.05683,2.77943 -3.6376,2.93675 -2.86092,0.77497 0.64944,-1.80743 0.20227,-2.71242 -1.34009,-2.71242 -2.89532,0 -5.81544,-7.34421 -4.5981,-11.56419 0.50141,-1.73823 5.80598,-6.64782 11.78805,-10.9102 10.71129,-7.63219 32.42093,-28.85033 32.42093,-31.68689 0,-0.79936 -1.91807,-0.45334 -4.26239,0.76891 -2.34431,1.22225 -7.56069,2.66375 -11.59182,3.20332 -6.56547,0.8788 -7.72793,1.66086 -11.15148,7.5027 -10.95774,18.69812 -35.00564,30.2097 -63.22123,30.26378 -11.93127,0.0228 -24.43183,-3.31741 -33.76971,-9.02358 -5.33294,-3.25882 -12.35812,-9.75928 -14.18118,-13.12202 -1.36629,-2.52006 -0.88069,-2.47055 4.95165,0.50493 l 6.46658,3.29896 -4.23914,-5.5577 c -3.66007,-4.79873 -4.13761,-6.61393 -3.49593,-13.29208 0.71981,-7.4906 0.61611,-7.73409 -3.29164,-7.72483 -4.6832,0.0109 -11.85532,3.46042 -16.77194,8.0664 l -3.4375,3.22013 3.78423,4.49717 c 4.19356,4.98379 7.61912,15.63898 6.45681,20.08381 -1.05304,4.02645 1.49819,3.57321 6.16713,-1.09565 3.84994,-3.85002 4.05934,-3.88444 7.0692,-1.16247 4.44698,4.02151 8.97178,13.54522 8.97178,18.88325 0,4.38968 0.18088,4.50868 4.42125,2.90812 7.57588,-2.85956 9.52837,-0.90505 9.52837,9.53838 0,5.08611 -0.68028,11.0366 -1.51152,13.22328 -2.05556,5.40626 0.64153,5.22669 9.48589,-0.6316 6.35282,-4.20793 9.05796,-7.59817 11.16435,-13.9921 0.42128,-1.27872 0.82101,1.38269 0.88844,5.91424 0.0666,4.53154 -0.59968,9.58828 -1.48223,11.23719 -1.23129,2.30062 -1.09954,2.99802 0.56605,2.99802 3.17431,0 9.99567,-5.77882 11.1631,-9.45699 0.55442,-1.74696 1.33405,-2.85037 1.73239,-2.45203 1.34707,1.34711 -4.2444,12.65519 -8.45176,17.09284 -2.29921,2.42486 -8.36513,6.50756 -13.47999,9.07266 -10.37139,5.20127 -18.45101,12.14835 -21.98832,18.90606 -2.21365,4.22905 -2.18358,4.4184 0.5197,3.27807 12.91316,-5.44711 20.97171,-6.6326 27.55515,-4.05359 2.61339,1.02376 2.67058,1.29127 0.45755,2.14048 -4.74473,1.82069 -8.86901,12.67467 -8.86901,23.34042 0,11.86467 1.41015,19.89935 3.2887,18.73836 0.74863,-0.46271 1.36117,-1.74451 1.36117,-2.84842 z M 460.06134,448.18813 c 10.50298,-6.49114 17.82653,-30.35237 14.64354,-47.71024 -3.10674,-16.94209 -12.1898,-28.77288 -25.82059,-33.63167 -5.88178,-2.0966 -5.90875,-2.14091 -1.34211,-2.20757 2.56301,-0.0374 6.98132,0.59769 9.81852,1.41137 4.27044,1.22473 4.85849,1.11807 3.41626,-0.61968 -2.19226,-2.64155 -15.09489,-7.83244 -27.04181,-10.87924 -5.03069,-1.28299 -9.43986,-2.62576 -9.79805,-2.98391 -1.49246,-1.49253 9.26564,-2.63589 16.15629,-1.71706 8.37659,1.11698 7.65819,0.0882 -4.29679,-6.152 -10.13564,-5.29067 -24.56265,-8.66864 -42.46172,-9.94216 l -15.55103,-1.10647 8.41859,-2.63894 c 15.67023,-4.91206 38.95401,-2.60701 52.41725,5.18923 8.69061,5.03252 5.48081,0.47424 -4.23448,-6.01337 -10.6896,-7.13827 -25.63956,-12.37366 -51.8898,-18.17149 -30.96831,-6.83992 -53.4844,-16.39696 -63.57967,-26.9865 l -4.61957,-4.84581 5.39455,2.20428 c 5.49292,2.24447 20.11916,4.88904 20.11916,3.63775 0,-0.37843 -3.72548,-2.51076 -8.27879,-4.7385 -4.55336,-2.22774 -9.61009,-5.54368 -11.23721,-7.36874 l -2.95839,-3.3183 4.76495,2.43591 c 2.62071,1.33974 7.50312,2.65575 10.84964,2.92446 7.38539,0.59299 7.38617,0.73465 -0.11005,-18.64653 -3.08116,-7.96688 -6.99997,-19.82405 -8.7083,-26.34928 -4.16924,-15.92518 -5.61681,-49.59106 -2.8099,-65.35005 l 2.06832,-11.61224 1.08759,11.37017 c 0.76333,7.98026 2.53439,14.30904 5.94033,21.2275 l 4.85276,9.85733 5.58558,-3.79047 c 4.04865,-2.74753 7.55186,-3.75382 12.73167,-3.65726 5.93416,0.11067 6.46611,0.33924 3.13711,1.34811 -6.46348,1.95874 -12.40354,6.48562 -17.20159,13.10895 l -4.48108,6.1861 3.9138,2.05066 c 3.82266,2.0029 6.63258,8.19061 4.95335,10.90771 -0.46297,0.74902 2.68314,-0.38256 6.99124,-2.51462 8.48556,-4.19945 24.18384,-5.35279 38.80924,-2.85127 l 7.27659,1.24459 1.07241,-5.71654 c 0.58992,-3.14409 0.71423,-14.86385 0.27652,-26.04391 -1.20525,-30.78503 -8.03886,-48.78213 -23.89617,-62.93394 l -7.50567,-6.69846 8.41813,4.50306 c 16.47605,8.81342 27.62955,30.60683 31.08131,60.73154 0.85185,7.43578 1.5856,14.91457 1.63024,16.61953 0.0605,2.29384 0.84798,1.64911 3.03017,-2.47942 3.83692,-7.25956 12.58488,-14.84896 22.30839,-19.35394 6.40241,-2.96623 7.24001,-3.7869 4.75124,-4.65494 -15.44688,-5.38769 -26.44073,-13.77758 -32.17542,-24.55457 -4.47023,-8.40053 -4.78395,-31.63309 -0.59518,-44.06297 1.53988,-4.569518 2.49729,-8.610684 2.12762,-8.980371 -1.44332,-1.443376 -32.81927,6.000842 -43.98191,10.435111 -45.89137,18.23001 -72.16676,57.89686 -71.62189,108.12456 l 0.14569,13.42578 2.0214,-10.07473 c 2.17623,-10.8464 8.71685,-30.62957 11.63068,-35.17885 1.64145,-2.56275 1.6972,-2.53742 0.67065,0.3048 -2.13575,5.91323 -2.5864,50.76763 -0.63069,62.77329 1.04151,6.39358 2.21878,15.23023 2.61614,19.63699 0.989,10.96787 -1.84228,12.76725 -19.85569,12.61909 -16.21164,-0.1333 -26.35818,2.90851 -35.3366,10.59371 -7.1698,6.13708 -13.27139,16.83924 -14.94245,26.20894 -2.11371,11.85163 -10.22681,20.77954 -24.70166,27.18244 -5.77156,2.55305 -7.05132,3.92117 -7.90012,8.44569 -1.97424,10.52366 3.22049,33.94464 9.58486,43.2143 2.24566,3.27077 1.92965,3.77638 5.2531,-8.40496 4.67864,-17.14842 17.49329,-34.08918 31.11465,-41.13306 l 5.25163,-2.71572 -5.01086,5.70705 c -4.98884,5.68196 -11.29906,16.91912 -13.51952,24.0754 -0.98911,3.18775 -0.41725,2.90529 3.76766,-1.86106 5.0195,-5.7169 18.63273,-12.08462 25.34184,-11.85393 2.6777,0.0921 2.28689,0.53133 -1.78311,2.00419 -12.95505,4.68824 -22.9053,17.86381 -24.52182,32.47046 l -0.88883,8.03127 5.92527,-6.79785 c 7.34856,-8.43075 15.99855,-12.49813 26.67393,-12.54258 11.40249,-0.0474 22.45056,4.25765 38.86412,15.14428 12.95496,8.59264 23.55265,12.74152 32.47157,12.71227 6.9807,-0.0229 14.88176,-4.02442 28.99661,-14.68557 17.97377,-13.57588 32.31584,-21.47705 44.9652,-24.77178 10.63535,-2.77016 12.84884,-2.04519 4.45892,1.46035 -7.90509,3.30296 -11.33685,6.55668 -14.74614,13.9813 -3.81228,8.30183 -3.58025,19.51334 0.66121,31.95634 l 3.4964,10.25692 -4.0953,-1.17451 c -5.37727,-1.54219 -10.35341,-4.22742 -16.58409,-8.94915 l -5.08169,-3.85115 1.56003,4.1033 c 3.25755,8.56823 6.26524,12.97479 13.24966,19.41286 15.91001,14.6654 46.31724,21.89652 59.03201,14.03839 z m -11.34429,-10.05236 c 8.57188,-8.57184 5.85791,-18.43182 -5.99974,-21.79795 l -6.03507,-1.71325 5.15857,-1.15239 c 12.8662,-2.87426 21.94741,3.98388 21.95996,16.58416 0,7.93623 -4.26936,12.01217 -12.60534,12.01217 l -6.41109,0 3.93271,-3.93274 z M 324.69779,395.49491 c -5.59891,-2.84649 -6.58732,-4.06526 -6.58732,-8.12252 0,-6.57624 -5.64718,-17.6505 -11.03006,-21.63023 -2.45823,-1.81745 -4.46952,-3.87078 -4.46952,-4.56294 0,-1.98787 6.75681,-1.47131 13.94962,1.06646 3.62427,1.27872 6.94048,2.32494 7.36937,2.32494 1.96583,0 -1.69496,-17.11023 -5.22574,-24.42472 -4.41196,-9.13993 -10.80983,-14.717 -21.8164,-19.01754 l -7.45149,-2.91148 5.42485,-0.0384 c 2.98367,-0.0211 8.2314,1.23644 11.66161,2.79466 9.00026,4.08853 23.6362,20.89385 32.07743,36.83222 4.00245,7.55707 10.09673,17.1291 13.54322,21.27117 3.44633,4.1421 6.26601,8.11712 6.26601,8.83338 0,0.71629 -2.49155,3.20268 -5.5366,5.52534 -7.643,5.82958 -19.11082,6.66793 -28.17498,2.05971 z m 187.06007,32.06384 c 7.415,-3.7119 19.6344,-8.3743 27.15433,-10.36086 15.1575,-4.00419 14.72041,-5.7932 -1.48269,-6.06889 -8.60289,-0.14632 -9.06741,-0.33094 -6.19983,-2.46321 5.33883,-3.96969 11.62856,-10.20706 13.13915,-13.02971 1.36535,-2.55124 1.11287,-2.54658 -4.29432,0.0794 -3.15974,1.53452 -7.66593,3.25206 -10.01381,3.81676 l -4.26889,1.02672 3.8628,-6.75698 c 2.78109,-4.86501 3.82902,-8.92693 3.74269,-14.50677 l -0.11935,-7.74979 -2.06656,7.52244 c -2.75474,10.02727 -6.9094,14.08429 -21.6805,21.17074 -6.82028,3.27199 -15.01894,8.64965 -18.22053,11.95115 l -5.82071,6.0024 10.47058,-0.62113 10.47074,-0.62113 -6.76556,6.58826 c -6.25129,6.08749 -12.49406,16.63562 -12.57496,21.24724 -0.0186,1.06806 2.49062,-0.8525 5.57628,-4.2679 3.42835,-3.79488 10.85296,-8.8344 19.09176,-12.95875 z m 135.34293,-65.20076 c 6.07398,-1.07644 11.15676,-6.46408 10.19129,-10.80244 -0.64727,-2.90814 -25.04143,14.92102 -25.85671,18.89812 -0.37586,1.833 1.04762,1.15618 4.64987,-2.21089 2.96368,-2.77019 7.69074,-5.29555 11.01555,-5.88479 z m -57.66029,-7.25033 c 2.55573,-4.77559 0.54094,-12.52514 -5.56403,-21.40008 -5.93495,-8.62798 -6.50781,-12.54127 -3.04815,-20.82148 4.21929,-10.09824 1.57243,-19.61354 -5.45601,-19.61354 -8.34776,0 -15.34597,12.93339 -16.32043,30.1615 -0.51319,9.07286 -0.38563,9.8562 0.75669,4.64688 0.7556,-3.44602 2.31501,-8.57229 3.46555,-11.39172 1.96705,-4.82106 2.0585,-4.39728 1.53554,7.11858 -0.39787,8.76219 0.14725,13.92956 1.919,18.16834 1.36118,3.25794 2.47498,8.27952 2.47498,11.15908 l 0,5.23557 9.24518,0 c 7.81303,0 9.51581,-0.50549 10.99168,-3.26313 z m 23.37476,-3.00842 c 17.62256,-5.93655 20.6535,-10.65399 12.82404,-19.95881 l -4.01268,-4.7688 4.40017,0.006 c 2.42011,0.003 6.74573,1.43573 9.61238,3.18345 2.86664,1.7477 5.52529,2.86455 5.90782,2.4819 1.63458,-1.63454 -9.43646,-11.83895 -14.68492,-13.53535 -3.15417,-1.0195 -8.586,-3.50326 -12.07092,-5.51948 -3.48477,-2.01662 -8.32327,-3.66625 -10.75206,-3.66625 l -4.41629,0 4.16489,4.34719 c 2.29068,2.39095 4.16489,4.73734 4.16489,5.21417 0,0.47685 -3.16672,1.30105 -7.03727,1.83156 -3.87056,0.53051 -8.47486,1.73393 -10.23189,2.67425 -3.17571,1.69962 -3.17199,1.73398 0.64803,5.83343 5.24723,5.631 6.82819,9.07466 8.11946,17.68587 0.60712,4.04927 1.74416,7.3623 2.52674,7.3623 0.78257,0 5.65951,-1.42723 10.83761,-3.17163 z M 524.16775,313.484 c 5.12773,-3.65127 8.37752,-4.28029 13.46572,-2.60643 4.17931,1.37486 5.97075,-2.48748 3.36512,-7.25507 -1.01445,-1.85632 -1.6645,-5.22096 -1.44441,-7.47695 0.49893,-5.11303 -8.26639,-17.58516 -13.74936,-19.56402 -5.16338,-1.86356 -14.41151,0.34036 -21.42429,5.10562 -9.87091,6.70746 -19.5969,5.22934 -49.13165,-7.4669 -19.24102,-8.27114 -30.2141,-14.1332 -39.45883,-21.07954 -10.90628,-8.19483 -15.69394,-14.40774 -17.93115,-23.26964 l -1.79795,-7.12159 -11.42303,-1.41784 c -13.01857,-1.61586 -28.70104,0.40962 -34.96876,4.51644 -2.16064,1.41567 -3.68781,2.81458 -3.39363,3.1087 0.29403,0.29411 4.71389,-0.4482 9.82177,-1.64959 11.18558,-2.63093 21.08113,-2.65895 29.43634,-0.0834 6.1851,1.9066 6.16666,1.91347 -7.74979,2.89664 -16.12251,1.139 -26.81009,4.39461 -31.77445,9.679 l -3.49252,3.71753 9.08213,22.16537 c 10.27886,25.08661 13.07126,28.5235 28.04479,34.51781 12.97423,5.19395 15.46207,4.9464 5.88984,-0.58609 -4.26239,-2.46351 -10.53972,-6.9496 -13.94962,-9.96908 l -6.19984,-5.48996 16.29642,5.22991 c 22.10596,7.09431 45.38509,11.69761 65.85135,13.02172 15.91372,1.02958 16.5413,1.18949 9.41925,2.4005 -7.145,1.21494 -27.90684,0.45939 -41.96837,-1.5273 l -6.19983,-0.87594 4.15404,2.40185 c 11.28013,6.52223 47.05223,10.19394 71.01892,7.28951 12.81272,-1.55273 13.32374,-1.48993 18.59949,2.28608 6.4844,4.64098 14.28968,4.31691 21.6123,-0.89733 z m 131.83352,0.71299 3.8749,-2.21509 -3.8749,-0.089 c -4.34716,-0.0998 -16.16125,-5.07952 -17.60922,-7.42242 -0.57829,-0.93569 2.27595,-1.44701 7.39004,-1.32385 6.06545,0.14601 9.17544,-0.56096 11.4314,-2.59886 3.028,-2.73513 3.16548,-2.66582 5.98083,3.0155 1.58498,3.19825 3.59915,6.03404 4.47612,6.30175 1.85127,0.56511 6.93033,-7.43033 6.93033,-10.90969 0,-3.6053 -11.62624,-20.31907 -16.23442,-23.33848 -5.91665,-3.8767 -14.458,-2.7596 -18.28748,2.39176 -2.8851,3.88112 -2.91532,4.39184 -0.5414,9.15039 3.39611,6.80779 3.18221,7.28152 -1.36071,3.01362 l -3.8749,-3.64028 -0.0341,3.75759 -0.0341,3.75758 -2.8592,-3.71878 c -1.91374,-2.4891 -3.07884,-3.05977 -3.52337,-1.7258 -0.4112,1.23355 -1.764,0.28815 -3.55033,-2.48105 -1.58716,-2.46071 -3.81832,-5.02958 -4.958,-5.7086 -1.13969,-0.67901 -4.9811,-5.56138 -8.53655,-10.84971 -21.95546,-32.656 -49.97204,-58.4388 -63.50193,-58.4388 -4.98761,0 -6.2919,0.71998 -8.28437,4.5729 -3.47919,6.72786 -2.95406,16.98703 1.29933,25.38859 2.01526,3.98062 3.14425,7.2375 2.50892,7.2375 -1.98395,0 -9.35973,-10.61543 -11.04144,-15.89129 -0.88239,-2.76824 -1.94209,-6.07937 -2.355,-7.35808 -1.13318,-3.51025 -5.05379,4.32095 -5.12137,10.22966 -0.0915,7.9523 11.27346,21.00216 26.57495,30.51659 3.74005,2.32554 4.70335,2.35485 9.63733,0.29325 3.01529,-1.2598 8.12008,-2.22766 11.3443,-2.15077 l 5.86209,0.13981 -5.36998,1.54067 -5.36998,1.54068 11.43837,4.77539 c 8.71216,3.63717 13.87104,7.16336 21.64454,14.79433 9.67748,9.49998 9.51132,10.25016 -0.48699,2.19864 -4.4831,-3.61016 -22.63094,-13.34413 -22.63094,-12.13855 0,0.34964 3.66178,2.96992 8.13728,5.82285 4.47551,2.85293 13.5051,10.18637 20.0656,16.29655 7.99778,7.44866 14.63734,12.15024 20.14945,14.26814 9.72552,3.73679 25.03167,4.2331 30.69552,0.99533 z M 445.75756,234.8907 c 15.13595,-9.07391 31.6289,-26.81876 39.37636,-42.3654 7.03154,-14.11019 11.2217,-28.0874 11.2217,-37.43315 0,-8.24345 2.51434,-8.71436 3.6159,-0.67722 0.85247,6.22015 -0.63084,20.29758 -2.88851,27.41064 -0.76568,2.41254 -0.14104,2.96572 3.43053,3.03654 2.40181,0.0476 7.50551,1.40363 11.34166,3.01332 l 6.97481,2.92671 -5.42486,0.0953 c -2.98366,0.0524 -8.21477,0.88512 -11.62468,1.8505 l -6.19983,1.75525 4.92608,1.72352 c 7.03494,2.46131 7.98538,4.06237 1.81748,3.06144 -3.80965,-0.61821 -6.27253,-0.0388 -8.90916,2.09626 -3.55266,2.87674 -3.5787,3.07682 -1.04111,7.98388 2.54612,4.92373 15.73455,14.73895 17.95781,13.36485 0.61766,-0.38174 1.56019,-2.8796 2.09446,-5.55082 1.28569,-6.42856 10.00668,-18.09589 17.85102,-23.88198 4.71528,-3.47803 6.31329,-5.73661 6.34072,-8.96204 0.0512,-6.02901 -3.70595,-14.35187 -10.61612,-23.51731 -3.86777,-5.12999 -6.20262,-10.12339 -6.78851,-14.51769 -0.94113,-7.05912 -7.43127,-18.40676 -11.39808,-19.92899 -3.3724,-1.29408 -10.99416,6.61096 -12.11028,12.56028 -1.32816,7.07959 -4.35755,10.57944 -9.15746,10.57944 -3.34171,0 -4.14149,0.72053 -4.14149,3.73094 0,2.05202 -1.00019,6.12489 -2.2228,9.05084 -3.2315,7.73404 -8.62505,8.62633 -18.8171,3.11304 l -8.04599,-4.35239 -4.83153,3.44033 c -5.42392,3.86214 -5.81699,3.43118 -2.58021,-2.82814 2.1456,-4.1491 2.0275,-4.5639 -2.51589,-8.83529 -10.13735,-9.53071 -11.12064,-20.61675 -2.96864,-33.47115 2.8451,-4.48623 3.84746,-7.52154 2.98321,-9.03306 -0.71609,-1.25206 -1.99232,-4.22262 -2.83612,-6.60123 -1.35234,-3.811308 -1.92381,-4.116369 -4.81417,-2.5695 -2.88927,1.54625 -9.16304,1.44317 -19.208,-0.31558 -2.63354,-0.46111 -3.36853,0.81805 -5.03318,8.75979 -5.87915,28.04823 9.87602,52.44432 39.60514,61.32635 l 6.68869,1.99836 -9.03083,3.27001 c -4.967,1.79849 -12.28264,5.50728 -16.25704,8.24171 -7.0086,4.82197 -16.76373,15.2041 -16.76373,17.84116 0,0.71438 10.81096,-4.37283 24.02435,-11.30489 13.21339,-6.93207 24.02434,-12.27917 24.02434,-11.88245 0,0.39672 -11.56857,9.25465 -25.70775,19.68428 l -25.70791,18.96299 0.99941,5.32716 c 0.54962,2.92992 1.43774,6.4982 1.97372,7.92949 1.89854,5.07108 -4.56122,-1.65794 -7.17336,-7.47236 l -2.43715,-5.42485 -0.51242,4.92328 c -0.57751,5.5494 4.15311,15.97819 9.81712,21.64219 l 3.6748,3.67481 8.75013,-3.86973 c 4.81262,-2.12836 13.03607,-6.43912 18.27447,-9.57946 z m 91.81624,-28.50498 5.12432,-3.16696 -3.18098,-3.18095 -3.18098,-3.18093 -6.06715,5.9245 c -5.69966,5.56558 -12.21398,16.44109 -12.21398,20.39105 0,0.97305 3.23879,-1.69333 7.19723,-5.92527 3.95859,-4.23196 9.50325,-9.11959 12.32154,-10.86144 z m -59.20854,-53.5111 c 1.49385,-3.8929 1.10837,-5.26509 -1.22726,-4.3688 -1.19254,0.45759 -2.62873,0.087 -3.19152,-0.82362 -1.18649,-1.91979 -10.13998,-2.27115 -10.13998,-0.39793 0,0.69173 1.42209,2.78417 3.16037,4.64987 3.68301,3.9534 10.04094,4.47798 11.39839,0.94048 z m 14.66818,-16.53688 c 2.0089,-4.05015 3.24205,-8.43371 2.74032,-9.74125 -0.80194,-2.08969 -1.4241,-2.0426 -5.1426,0.38908 -2.32664,1.52155 -3.681,1.87512 -3.00955,0.78571 0.7539,-1.2234 0.0155,-3.00131 -1.93141,-4.64988 -4.03485,-3.41668 -6.10078,-11.19389 -2.97343,-11.19389 1.20819,0 3.55064,1.02405 5.20537,2.27564 1.65474,1.2516 3.56646,2.29782 4.24813,2.32493 2.31052,0.0919 -1.45417,-4.79093 -6.00872,-7.79335 -4.81138,-3.17175 -3.35241,-3.95565 2.92213,-1.57006 2.07881,0.79034 5.31977,3.929 7.20219,6.9748 4.20333,6.8012 9.60571,7.43374 13.44511,1.57422 2.47575,-3.77849 2.43855,-4.15857 -0.79683,-8.13728 -1.86646,-2.29552 -4.5885,-6.20098 -6.04871,-8.678796 -6.77549,-11.497068 -14.59208,-13.255031 -28.2235,-6.34746 -21.77566,11.034576 -28.54991,27.938586 -17.80064,44.418276 3.57668,5.48329 3.88652,5.61821 9.58308,4.1738 4.37646,-1.10967 7.47761,-0.91548 12.08672,0.75688 8.91211,3.23369 10.42828,2.6523 14.50234,-5.56137 z m -11.14404,4.00566 c -1.4813,-1.48129 -1.27422,-3.61658 0.35075,-3.61658 0.76134,0 1.78555,1.04622 2.27627,2.32494 0.90673,2.36257 -0.74444,3.17431 -2.62702,1.29164 z m -5.68323,-3.56203 c 0,-0.82249 1.42689,-2.25907 3.17075,-3.19239 2.92849,-1.56724 3.01838,-1.45293 1.17719,1.49543 -2.09477,3.35414 -4.34794,4.23356 -4.34794,1.69696 z m 10.83668,-20.24479 c -3.75896,-2.37657 -4.86361,-1.7291 -2.99777,1.75717 1.31638,2.45992 2.18776,2.82664 3.52894,1.48542 1.34118,-1.34124 1.21005,-2.14177 -0.53117,-3.24259 z m -35.06965,-12.478 c 1.49075,-7.454282 -0.30984,-12.537107 -4.2427,-11.976082 -4.42994,0.631942 -5.54343,11.001792 -1.64404,15.310632 3.27816,3.62222 4.6508,2.8446 5.88674,-3.33455 z m -5.10169,-1.21671 c -1.08404,-2.02578 -0.96175,-3.682536 0.41058,-5.55927 1.70666,-2.334156 1.95481,-1.967893 1.95481,2.8858 0,6.37263 -0.24024,6.6442 -2.36539,2.67347 z m 78.93331,-14.728895 c 0,-1.068245 -1.01151,-3.296163 -2.24791,-4.950931 -2.19567,-2.938836 -2.22884,-2.93319 -1.43076,0.243249 0.44948,1.788557 -0.28055,5.973443 -1.62234,9.299747 l -2.43948,6.047828 3.87024,-4.348816 c 2.12871,-2.391848 3.87025,-5.222832 3.87025,-6.291077 z m -69.20407,-6.4527 c -1.54407,-4.023567 -6.14,-5.590506 -10.5301,-3.590174 -5.00838,2.281907 -5.14183,4.203569 -0.22676,3.264002 2.05524,-0.392885 5.01954,0.03137 6.58732,0.942784 3.99176,2.320576 5.22646,2.137974 4.16954,-0.616612 z m 55.81941,-14.260069 c -0.92114,-6.657719 -8.56042,-20.570924 -11.2947,-20.570924 -0.82411,0 0.27605,3.876075 2.4449,8.613501 2.16901,4.737426 4.7314,13.213028 5.69424,18.834669 1.65923,9.685917 1.81143,9.945061 2.90663,4.948628 0.63564,-2.899895 0.7477,-8.221539 0.24893,-11.825874 z m -15.02421,-3.95207 c -2.11957,-3.599271 -5.99973,-7.797782 -8.62288,-9.330026 -4.50449,-2.63132 -4.31896,-2.153012 3.34419,8.620419 8.37954,11.780642 12.09168,12.279673 5.27869,0.709607 z m -8.59328,5.468045 c -2.39964,-4.451445 -8.39333,-9.384477 -14.50528,-11.938197 -9.56386,-3.996041 -10.25498,-2.638826 -1.19114,2.339274 4.68862,2.575117 10.25266,6.398627 12.36448,8.49669 4.54742,4.517813 5.30892,4.769747 3.33194,1.102233 z M 466.13144,44.375753 c -5.34875,-3.370464 -7.63199,-3.835803 -16.63353,-3.389972 -5.73871,0.284222 -11.11242,1.192172 -11.94196,2.017666 -0.97306,0.968401 2.17878,1.327909 8.8839,1.013312 6.37745,-0.299231 12.78684,0.379415 16.59168,1.756778 9.19621,3.329048 10.0152,2.959758 3.09991,-1.397784 z m 23.24937,-1.636098 c -5.01737,-3.951072 -12.70377,-6.767713 -18.16225,-6.655465 -4.82425,0.09921 -4.7266,0.203894 1.88769,2.025838 3.83615,1.056675 9.06725,3.074117 11.62469,4.483204 5.9075,3.254883 8.70936,3.343113 4.64987,0.146424 z"
       id="path3126"
       inkscape:connector-curvature="0" />
  </g>
</svg>
